<svg xmlns="http://www.w3.org/2000/svg" width="30" viewBox="0 0 30 30" height="30" version="1.0"><defs><clipPath id="a"><path d="M 6.234375 4.054688 L 27.285156 4.054688 L 27.285156 25.105469 L 6.234375 25.105469 Z M 6.234375 4.054688"/></clipPath><clipPath id="b"><path d="M 2.679688 4.832031 L 23.726562 4.832031 L 23.726562 25.882812 L 2.679688 25.882812 Z M 2.679688 4.832031"/></clipPath><clipPath id="c"><path d="M 3.128906 2.570312 L 23.449219 2.570312 L 23.449219 22.894531 L 3.128906 22.894531 Z M 3.128906 2.570312"/></clipPath></defs><g clip-path="url(#a)"><path fill="#FF1616" d="M 16.761719 25.105469 C 10.957031 25.105469 6.234375 20.382812 6.234375 14.578125 C 6.234375 8.773438 10.957031 4.054688 16.761719 4.054688 C 22.566406 4.054688 27.285156 8.773438 27.285156 14.578125 C 27.285156 20.382812 22.566406 25.105469 16.761719 25.105469 Z M 16.761719 4.6875 C 11.304688 4.6875 6.867188 9.125 6.867188 14.578125 C 6.867188 20.035156 11.308594 24.472656 16.761719 24.472656 C 22.214844 24.472656 26.652344 20.03125 26.652344 14.578125 C 26.652344 9.125 22.214844 4.6875 16.761719 4.6875 Z M 16.761719 4.6875"/></g><path fill="#FF1616" d="M 16.761719 22.15625 C 12.582031 22.15625 9.183594 18.757812 9.183594 14.578125 C 9.183594 10.398438 12.582031 7.007812 16.761719 7.007812 C 20.941406 7.007812 24.332031 10.402344 24.332031 14.578125 C 24.339844 18.753906 20.941406 22.15625 16.761719 22.15625 Z M 16.761719 7.570312 C 12.894531 7.570312 9.753906 10.714844 9.753906 14.574219 C 9.753906 18.433594 12.894531 21.585938 16.761719 21.585938 C 20.625 21.585938 23.765625 18.441406 23.765625 14.578125 C 23.765625 10.71875 20.625 7.570312 16.761719 7.570312 Z M 16.761719 7.570312"/><g clip-path="url(#b)"><path fill="#004AAD" d="M 13.203125 25.882812 C 7.398438 25.882812 2.679688 21.164062 2.679688 15.355469 C 2.679688 9.550781 7.398438 4.832031 13.203125 4.832031 C 19.007812 4.832031 23.726562 9.550781 23.726562 15.355469 C 23.726562 21.164062 19.007812 25.882812 13.203125 25.882812 Z M 13.203125 5.464844 C 7.75 5.464844 3.3125 9.902344 3.3125 15.355469 C 3.3125 20.8125 7.753906 25.25 13.203125 25.25 C 18.660156 25.25 23.097656 20.808594 23.097656 15.355469 C 23.097656 9.902344 18.660156 5.464844 13.203125 5.464844 Z M 13.203125 5.464844"/></g><path fill="#004AAD" d="M 13.203125 22.933594 C 9.023438 22.933594 5.625 19.539062 5.625 15.355469 C 5.625 11.175781 9.023438 7.785156 13.203125 7.785156 C 17.382812 7.785156 20.777344 11.179688 20.777344 15.355469 C 20.78125 19.535156 17.382812 22.933594 13.203125 22.933594 Z M 13.203125 8.347656 C 9.339844 8.347656 6.199219 11.492188 6.199219 15.351562 C 6.199219 19.214844 9.339844 22.363281 13.203125 22.363281 C 17.070312 22.363281 20.210938 19.21875 20.210938 15.355469 C 20.210938 11.496094 17.070312 8.347656 13.203125 8.347656 Z M 13.203125 8.347656"/><g clip-path="url(#c)"><path d="M 13.289062 22.894531 C 7.683594 22.894531 3.128906 18.335938 3.128906 12.730469 C 3.128906 7.125 7.683594 2.570312 13.289062 2.570312 C 18.894531 2.570312 23.449219 7.125 23.449219 12.730469 C 23.449219 18.335938 18.894531 22.894531 13.289062 22.894531 Z M 13.289062 3.179688 C 8.023438 3.179688 3.738281 7.464844 3.738281 12.730469 C 3.738281 18 8.027344 22.28125 13.289062 22.28125 C 18.558594 22.28125 22.839844 17.996094 22.839844 12.730469 C 22.839844 7.464844 18.558594 3.179688 13.289062 3.179688 Z M 13.289062 3.179688"/></g><path d="M 13.289062 20.046875 C 9.253906 20.046875 5.972656 16.769531 5.972656 12.730469 C 5.972656 8.695312 9.253906 5.417969 13.289062 5.417969 C 17.324219 5.417969 20.601562 8.699219 20.601562 12.730469 C 20.605469 16.761719 17.324219 20.046875 13.289062 20.046875 Z M 13.289062 5.964844 C 9.558594 5.964844 6.527344 9 6.527344 12.726562 C 6.527344 16.453125 9.558594 19.496094 13.289062 19.496094 C 17.019531 19.496094 20.054688 16.457031 20.054688 12.730469 C 20.054688 9.003906 17.019531 5.964844 13.289062 5.964844 Z M 13.289062 5.964844"/></svg>