<svg xmlns="http://www.w3.org/2000/svg" width="30" viewBox="0 0 30 30" height="30" version="1.0"><defs><clipPath id="a"><path d="M 0.484375 0 L 29.515625 0 L 29.515625 29.03125 L 0.484375 29.03125 Z M 0.484375 0"/></clipPath><clipPath id="b"><path d="M 12.042969 8.359375 L 19.300781 8.359375 L 19.300781 15.617188 L 12.042969 15.617188 Z M 12.042969 8.359375"/></clipPath><clipPath id="c"><path d="M 10.875 8.617188 L 18.132812 8.617188 L 18.132812 15.875 L 10.875 15.875 Z M 10.875 8.617188"/></clipPath><clipPath id="d"><path d="M 11.023438 7.875 L 17.554688 7.875 L 17.554688 14.40625 L 11.023438 14.40625 Z M 11.023438 7.875"/></clipPath><clipPath id="e"><path d="M 11.023438 8 L 17 8 L 17 14 L 11.023438 14 Z M 11.023438 8"/></clipPath></defs><g clip-path="url(#a)" fill="#FFF"><path d="M 0.484375 0 L 29.515625 0 L 29.515625 36.289062 L 0.484375 36.289062 Z M 0.484375 0"/><path d="M 0.484375 0 L 29.515625 0 L 29.515625 29.03125 L 0.484375 29.03125 Z M 0.484375 0"/></g><g clip-path="url(#b)"><path fill="#FF1616" d="M 15.671875 15.617188 C 13.667969 15.617188 12.042969 13.992188 12.042969 11.988281 C 12.042969 9.988281 13.667969 8.359375 15.671875 8.359375 C 17.671875 8.359375 19.300781 9.988281 19.300781 11.988281 C 19.300781 13.992188 17.671875 15.617188 15.671875 15.617188 Z M 15.671875 8.578125 C 13.789062 8.578125 12.257812 10.109375 12.257812 11.988281 C 12.257812 13.871094 13.789062 15.402344 15.671875 15.402344 C 17.550781 15.402344 19.082031 13.871094 19.082031 11.988281 C 19.082031 10.109375 17.550781 8.578125 15.671875 8.578125 Z M 15.671875 8.578125"/></g><path fill="#FF1616" d="M 15.671875 14.601562 C 14.230469 14.601562 13.058594 13.429688 13.058594 11.988281 C 13.058594 10.546875 14.230469 9.378906 15.671875 9.378906 C 17.113281 9.378906 18.28125 10.550781 18.28125 11.988281 C 18.285156 13.429688 17.113281 14.601562 15.671875 14.601562 Z M 15.671875 9.574219 C 14.339844 9.574219 13.253906 10.65625 13.253906 11.988281 C 13.253906 13.320312 14.339844 14.40625 15.671875 14.40625 C 17.003906 14.40625 18.085938 13.320312 18.085938 11.988281 C 18.085938 10.660156 17.003906 9.574219 15.671875 9.574219 Z M 15.671875 9.574219"/><g clip-path="url(#c)"><path fill="#004AAD" d="M 14.503906 15.875 C 12.503906 15.875 10.875 14.246094 10.875 12.246094 C 10.875 10.242188 12.503906 8.617188 14.503906 8.617188 C 16.507812 8.617188 18.132812 10.242188 18.132812 12.246094 C 18.132812 14.246094 16.507812 15.875 14.503906 15.875 Z M 14.503906 8.832031 C 12.625 8.832031 11.09375 10.363281 11.09375 12.246094 C 11.09375 14.125 12.625 15.65625 14.503906 15.65625 C 16.386719 15.65625 17.914062 14.125 17.914062 12.246094 C 17.914062 10.363281 16.386719 8.832031 14.503906 8.832031 Z M 14.503906 8.832031"/></g><path fill="#004AAD" d="M 14.503906 14.859375 C 13.0625 14.859375 11.890625 13.6875 11.890625 12.246094 C 11.890625 10.804688 13.0625 9.632812 14.503906 9.632812 C 15.945312 9.632812 17.117188 10.804688 17.117188 12.246094 C 17.117188 13.683594 15.945312 14.859375 14.503906 14.859375 Z M 14.503906 9.828125 C 13.171875 9.828125 12.089844 10.914062 12.089844 12.242188 C 12.089844 13.574219 13.171875 14.660156 14.503906 14.660156 C 15.835938 14.660156 16.921875 13.574219 16.921875 12.246094 C 16.921875 10.914062 15.835938 9.828125 14.503906 9.828125 Z M 14.503906 9.828125"/><g clip-path="url(#d)"><path d="M 14.289062 14.40625 C 12.488281 14.40625 11.023438 12.941406 11.023438 11.140625 C 11.023438 9.339844 12.488281 7.875 14.289062 7.875 C 16.089844 7.875 17.554688 9.339844 17.554688 11.140625 C 17.554688 12.941406 16.089844 14.40625 14.289062 14.40625 Z M 14.289062 8.070312 C 12.59375 8.070312 11.21875 9.445312 11.21875 11.140625 C 11.21875 12.832031 12.597656 14.210938 14.289062 14.210938 C 15.980469 14.210938 17.359375 12.832031 17.359375 11.140625 C 17.359375 9.445312 15.980469 8.070312 14.289062 8.070312 Z M 14.289062 8.070312"/></g><g clip-path="url(#e)"><path d="M 14.289062 13.492188 C 12.992188 13.492188 11.9375 12.4375 11.9375 11.140625 C 11.9375 9.84375 12.992188 8.789062 14.289062 8.789062 C 15.585938 8.789062 16.640625 9.84375 16.640625 11.140625 C 16.640625 12.4375 15.585938 13.492188 14.289062 13.492188 Z M 14.289062 8.964844 C 13.089844 8.964844 12.113281 9.941406 12.113281 11.140625 C 12.113281 12.335938 13.089844 13.3125 14.289062 13.3125 C 15.488281 13.3125 16.460938 12.339844 16.460938 11.140625 C 16.460938 9.941406 15.488281 8.964844 14.289062 8.964844 Z M 14.289062 8.964844"/></g></svg>