<svg xmlns="http://www.w3.org/2000/svg" width="375" viewBox="0 0 375 375" height="375" version="1.0"><defs><clipPath id="a"><path d="M 149.289062 107.996094 L 238.539062 107.996094 L 238.539062 197.246094 L 149.289062 197.246094 Z M 149.289062 107.996094"/></clipPath><clipPath id="b"><path d="M 134.226562 111.289062 L 224.226562 111.289062 L 224.226562 201.289062 L 134.226562 201.289062 Z M 134.226562 111.289062"/></clipPath><clipPath id="c"><path d="M 136.125 101.707031 L 222.375 101.707031 L 222.375 187.957031 L 136.125 187.957031 Z M 136.125 101.707031"/></clipPath></defs><g><g><g><path d="M 3.359375 0 L 3.359375 -12.609375 L 0.203125 -12.609375 L 0.203125 -14.234375 L 8.953125 -14.234375 L 8.953125 -12.609375 L 5.796875 -12.609375 L 5.796875 0 Z M 3.359375 0" transform="translate(109.036 240.449)"/></g></g></g><g><g><g><path d="M 4.984375 0.203125 C 4.210938 0.203125 3.550781 0.171875 3 0.109375 C 2.445312 0.046875 1.921875 -0.0546875 1.421875 -0.203125 L 1.421875 -14.03125 C 1.921875 -14.1875 2.445312 -14.289062 3 -14.34375 C 3.550781 -14.40625 4.210938 -14.4375 4.984375 -14.4375 C 6.472656 -14.4375 7.585938 -14.109375 8.328125 -13.453125 C 9.078125 -12.796875 9.453125 -11.875 9.453125 -10.6875 C 9.453125 -10.0625 9.28125 -9.472656 8.9375 -8.921875 C 8.59375 -8.367188 8.125 -7.953125 7.53125 -7.671875 L 7.53125 -7.59375 C 8.34375 -7.300781 8.96875 -6.832031 9.40625 -6.1875 C 9.84375 -5.550781 10.0625 -4.773438 10.0625 -3.859375 C 10.0625 -2.503906 9.660156 -1.488281 8.859375 -0.8125 C 8.066406 -0.132812 6.773438 0.203125 4.984375 0.203125 Z M 4.78125 -8.234375 C 5.445312 -8.234375 5.96875 -8.429688 6.34375 -8.828125 C 6.726562 -9.234375 6.921875 -9.816406 6.921875 -10.578125 C 6.921875 -11.335938 6.726562 -11.914062 6.34375 -12.3125 C 5.96875 -12.71875 5.445312 -12.921875 4.78125 -12.921875 L 3.859375 -12.921875 L 3.859375 -8.234375 Z M 4.984375 -1.328125 C 5.847656 -1.328125 6.488281 -1.539062 6.90625 -1.96875 C 7.320312 -2.394531 7.53125 -3.0625 7.53125 -3.96875 C 7.53125 -4.925781 7.320312 -5.625 6.90625 -6.0625 C 6.488281 -6.5 5.847656 -6.71875 4.984375 -6.71875 L 3.859375 -6.71875 L 3.859375 -1.328125 Z M 4.984375 -1.328125" transform="translate(118.49 240.449)"/></g></g></g><g><g><g><path d="M 5.59375 0.203125 C 4.09375 0.203125 2.9375 -0.359375 2.125 -1.484375 C 1.320312 -2.617188 0.921875 -4.5 0.921875 -7.125 C 0.921875 -9.738281 1.320312 -11.609375 2.125 -12.734375 C 2.9375 -13.867188 4.09375 -14.4375 5.59375 -14.4375 C 7.113281 -14.4375 8.273438 -13.867188 9.078125 -12.734375 C 9.878906 -11.609375 10.28125 -9.738281 10.28125 -7.125 C 10.28125 -4.5 9.878906 -2.617188 9.078125 -1.484375 C 8.273438 -0.359375 7.113281 0.203125 5.59375 0.203125 Z M 5.59375 -1.21875 C 6.25 -1.21875 6.785156 -1.664062 7.203125 -2.5625 C 7.617188 -3.457031 7.828125 -4.976562 7.828125 -7.125 C 7.828125 -9.257812 7.617188 -10.773438 7.203125 -11.671875 C 6.785156 -12.566406 6.25 -13.015625 5.59375 -13.015625 C 4.945312 -13.015625 4.410156 -12.566406 3.984375 -11.671875 C 3.566406 -10.773438 3.359375 -9.257812 3.359375 -7.125 C 3.359375 -4.976562 3.566406 -3.457031 3.984375 -2.5625 C 4.410156 -1.664062 4.945312 -1.21875 5.59375 -1.21875 Z M 5.59375 -1.21875" transform="translate(129.571 240.449)"/></g></g></g><g><g><g><path d="M 1.625 0.203125 C 1.289062 0.203125 0.96875 0.171875 0.65625 0.109375 C 0.351562 0.046875 0.203125 0.0078125 0.203125 0 L 0.203125 -1.125 C 0.617188 -1.125 0.945312 -1.207031 1.1875 -1.375 C 1.425781 -1.539062 1.609375 -1.828125 1.734375 -2.234375 L 2.234375 -3.96875 C 2.410156 -4.59375 2.640625 -5.09375 2.921875 -5.46875 C 3.203125 -5.851562 3.484375 -6.101562 3.765625 -6.21875 L 3.765625 -6.3125 C 3.347656 -6.382812 2.921875 -6.578125 2.484375 -6.890625 C 2.046875 -7.203125 1.675781 -7.632812 1.375 -8.1875 C 1.070312 -8.75 0.921875 -9.410156 0.921875 -10.171875 C 0.921875 -11.609375 1.300781 -12.675781 2.0625 -13.375 C 2.832031 -14.082031 4.046875 -14.4375 5.703125 -14.4375 C 6.484375 -14.4375 7.144531 -14.40625 7.6875 -14.34375 C 8.226562 -14.289062 8.75 -14.1875 9.25 -14.03125 L 9.25 0 L 6.8125 0 L 6.8125 -5.703125 L 6.3125 -5.703125 C 6.050781 -5.703125 5.773438 -5.5625 5.484375 -5.28125 C 5.191406 -5 4.957031 -4.5625 4.78125 -3.96875 L 4.265625 -2.234375 C 4.023438 -1.390625 3.695312 -0.769531 3.28125 -0.375 C 2.875 0.0078125 2.320312 0.203125 1.625 0.203125 Z M 6.8125 -7.328125 L 6.8125 -12.921875 L 5.703125 -12.921875 C 4.921875 -12.921875 4.332031 -12.695312 3.9375 -12.25 C 3.550781 -11.8125 3.359375 -11.117188 3.359375 -10.171875 C 3.359375 -9.179688 3.550781 -8.457031 3.9375 -8 C 4.320312 -7.550781 4.910156 -7.328125 5.703125 -7.328125 Z M 6.8125 -7.328125" transform="translate(141.06 240.449)"/></g></g></g><g><g><g><path d="M 1.421875 -14.03125 C 1.921875 -14.1875 2.445312 -14.289062 3 -14.34375 C 3.550781 -14.40625 4.210938 -14.4375 4.984375 -14.4375 C 6.679688 -14.4375 7.898438 -14.039062 8.640625 -13.25 C 9.390625 -12.46875 9.765625 -11.171875 9.765625 -9.359375 C 9.765625 -7.472656 9.421875 -6.117188 8.734375 -5.296875 C 8.046875 -4.472656 7 -4.0625 5.59375 -4.0625 C 5.425781 -4.0625 5.15625 -4.082031 4.78125 -4.125 C 4.414062 -4.164062 4.109375 -4.210938 3.859375 -4.265625 L 3.859375 0 L 1.421875 0 Z M 4.984375 -5.703125 C 5.785156 -5.703125 6.375 -5.96875 6.75 -6.5 C 7.132812 -7.03125 7.328125 -7.984375 7.328125 -9.359375 C 7.328125 -10.671875 7.132812 -11.59375 6.75 -12.125 C 6.375 -12.65625 5.785156 -12.921875 4.984375 -12.921875 L 3.859375 -12.921875 L 3.859375 -5.703125 Z M 4.984375 -5.703125" transform="translate(157.427 240.449)"/></g></g></g><g><g><g><path d="M 1.421875 0 L 1.421875 -14.234375 L 8.84375 -14.234375 L 8.84375 -12.609375 L 3.859375 -12.609375 L 3.859375 -8.234375 L 8.234375 -8.234375 L 8.234375 -6.609375 L 3.859375 -6.609375 L 3.859375 -1.625 L 8.84375 -1.625 L 8.84375 0 Z M 1.421875 0" transform="translate(168.203 240.449)"/></g></g></g><g><g><g><path d="M 5.703125 0.203125 C 4.597656 0.203125 3.695312 -0.015625 3 -0.453125 C 2.3125 -0.898438 1.789062 -1.65625 1.4375 -2.71875 C 1.09375 -3.789062 0.921875 -5.257812 0.921875 -7.125 C 0.921875 -8.976562 1.09375 -10.441406 1.4375 -11.515625 C 1.78125 -12.585938 2.285156 -13.34375 2.953125 -13.78125 C 3.617188 -14.21875 4.46875 -14.4375 5.5 -14.4375 C 6.15625 -14.4375 6.773438 -14.394531 7.359375 -14.3125 C 7.941406 -14.238281 8.40625 -14.144531 8.75 -14.03125 L 8.75 -12.921875 L 6.3125 -12.921875 C 5.351562 -12.921875 4.617188 -12.492188 4.109375 -11.640625 C 3.609375 -10.785156 3.359375 -9.28125 3.359375 -7.125 C 3.359375 -5.644531 3.484375 -4.476562 3.734375 -3.625 C 3.984375 -2.78125 4.332031 -2.1875 4.78125 -1.84375 C 5.238281 -1.5 5.816406 -1.328125 6.515625 -1.328125 L 8.953125 -1.328125 L 8.953125 -0.203125 C 8.609375 -0.0976562 8.144531 -0.00390625 7.5625 0.078125 C 6.976562 0.160156 6.359375 0.203125 5.703125 0.203125 Z M 5.703125 0.203125" transform="translate(178.166 240.449)"/></g></g></g><g><g><g><path d="M 1.421875 0 L 1.421875 -14.234375 L 9.96875 -14.234375 L 9.96875 0 L 7.53125 0 L 7.53125 -12.609375 L 3.859375 -12.609375 L 3.859375 0 Z M 1.421875 0" transform="translate(187.722 240.449)"/></g></g></g><g><g><g><path d="M 3.859375 0.203125 C 3.179688 0.203125 2.4375 0.0664062 1.625 -0.203125 L 1.625 -1.328125 L 3.046875 -1.328125 C 3.585938 -1.328125 4.019531 -1.515625 4.34375 -1.890625 C 4.664062 -2.273438 4.945312 -3 5.1875 -4.0625 C 4.414062 -4.0625 3.765625 -4.28125 3.234375 -4.71875 C 2.703125 -5.164062 2.335938 -5.765625 2.140625 -6.515625 L 0 -14.234375 L 2.4375 -14.234375 L 4.515625 -6.71875 C 4.597656 -6.40625 4.726562 -6.15625 4.90625 -5.96875 C 5.082031 -5.789062 5.28125 -5.703125 5.5 -5.703125 L 7.21875 -14.234375 L 9.65625 -14.234375 L 7.421875 -3.25 C 7.191406 -2.082031 6.78125 -1.210938 6.1875 -0.640625 C 5.601562 -0.078125 4.828125 0.203125 3.859375 0.203125 Z M 3.859375 0.203125" transform="translate(199.413 240.449)"/></g></g></g><g><g><g><path d="M 4.984375 0.203125 C 4.210938 0.203125 3.550781 0.171875 3 0.109375 C 2.445312 0.046875 1.921875 -0.0546875 1.421875 -0.203125 L 1.421875 -14.234375 L 9.046875 -14.234375 L 9.046875 -12.609375 L 3.859375 -12.609375 L 3.859375 -8.75 L 4.984375 -8.75 C 6.648438 -8.75 7.863281 -8.378906 8.625 -7.640625 C 9.382812 -6.910156 9.765625 -5.753906 9.765625 -4.171875 C 9.765625 -2.679688 9.382812 -1.578125 8.625 -0.859375 C 7.863281 -0.148438 6.648438 0.203125 4.984375 0.203125 Z M 4.984375 -1.328125 C 5.773438 -1.328125 6.363281 -1.550781 6.75 -2 C 7.132812 -2.457031 7.328125 -3.179688 7.328125 -4.171875 C 7.328125 -5.210938 7.132812 -5.960938 6.75 -6.421875 C 6.363281 -6.890625 5.773438 -7.125 4.984375 -7.125 L 3.859375 -7.125 L 3.859375 -1.328125 Z M 4.984375 -1.328125" transform="translate(209.783 240.449)"/></g></g></g><g><g><g><path d="M 1.421875 0.203125 C 1.046875 0.203125 0.710938 0.171875 0.421875 0.109375 C 0.140625 0.046875 0 0.0078125 0 0 L 0 -1.125 C 1.175781 -1.125 1.820312 -2.171875 1.9375 -4.265625 L 2.4375 -14.234375 L 9.96875 -14.234375 L 9.96875 0 L 7.53125 0 L 7.53125 -12.609375 L 4.796875 -12.609375 L 4.375 -4.265625 C 4.226562 -1.285156 3.242188 0.203125 1.421875 0.203125 Z M 1.421875 0.203125" transform="translate(220.559 240.449)"/></g></g></g><g><g><g><path d="M 1.421875 0 L 1.421875 -14.234375 L 3.765625 -14.234375 L 3.765625 -4.875 L 3.859375 -4.875 L 7.625 -14.234375 L 10.171875 -14.234375 L 10.171875 0 L 7.828125 0 L 7.828125 -9.5625 L 7.734375 -9.5625 L 3.859375 0 Z M 1.421875 0" transform="translate(232.25 240.449)"/></g></g></g><g><g><g><path d="M 9.046875 0.203125 C 8.304688 0.203125 7.726562 0.00390625 7.3125 -0.390625 C 6.894531 -0.796875 6.59375 -1.410156 6.40625 -2.234375 L 5.796875 -4.875 C 5.648438 -5.519531 5.453125 -5.96875 5.203125 -6.21875 C 4.960938 -6.476562 4.648438 -6.609375 4.265625 -6.609375 L 3.859375 -6.609375 L 3.859375 0 L 1.421875 0 L 1.421875 -14.234375 L 3.859375 -14.234375 L 3.859375 -8.234375 L 4.265625 -8.234375 C 4.535156 -8.234375 4.773438 -8.363281 4.984375 -8.625 C 5.203125 -8.882812 5.40625 -9.332031 5.59375 -9.96875 L 6.203125 -12 C 6.460938 -12.851562 6.785156 -13.472656 7.171875 -13.859375 C 7.554688 -14.242188 8.113281 -14.4375 8.84375 -14.4375 C 9.226562 -14.4375 9.5625 -14.40625 9.84375 -14.34375 C 10.132812 -14.289062 10.28125 -14.253906 10.28125 -14.234375 L 10.28125 -13.125 C 9.84375 -13.125 9.503906 -13.03125 9.265625 -12.84375 C 9.023438 -12.664062 8.851562 -12.382812 8.75 -12 L 8.140625 -9.96875 C 7.910156 -9.175781 7.648438 -8.59375 7.359375 -8.21875 C 7.078125 -7.851562 6.726562 -7.601562 6.3125 -7.46875 L 6.3125 -7.390625 C 7.363281 -7.046875 8.039062 -6.207031 8.34375 -4.875 L 8.953125 -2.234375 C 9.035156 -1.910156 9.203125 -1.644531 9.453125 -1.4375 C 9.703125 -1.226562 10.046875 -1.125 10.484375 -1.125 L 10.484375 0 C 10.484375 0.0078125 10.335938 0.046875 10.046875 0.109375 C 9.765625 0.171875 9.429688 0.203125 9.046875 0.203125 Z M 9.046875 0.203125" transform="translate(244.145 240.449)"/></g></g></g><g><g><g><path d="M 0.3125 0 L 3.96875 -14.234375 L 7.015625 -14.234375 L 10.6875 0 L 8.140625 0 L 7.25 -3.5625 L 3.75 -3.5625 L 2.84375 0 Z M 4.0625 -5.1875 L 6.890625 -5.1875 L 5.53125 -10.984375 L 5.453125 -10.984375 Z M 4.0625 -5.1875" transform="translate(255.022 240.449)"/></g></g></g><g fill="#4793D7"><g><g><path d="M 2.734375 0.125 C 2.003906 0.125 1.367188 0.0390625 0.828125 -0.125 L 0.828125 -8.21875 C 1.367188 -8.382812 2.003906 -8.46875 2.734375 -8.46875 C 3.566406 -8.46875 4.171875 -8.285156 4.546875 -7.921875 C 4.929688 -7.566406 5.125 -7.015625 5.125 -6.265625 C 5.125 -5.429688 4.804688 -4.84375 4.171875 -4.5 L 4.171875 -4.453125 C 5.046875 -4.191406 5.484375 -3.460938 5.484375 -2.265625 C 5.484375 -1.703125 5.394531 -1.242188 5.21875 -0.890625 C 5.039062 -0.546875 4.75 -0.289062 4.34375 -0.125 C 3.945312 0.0390625 3.410156 0.125 2.734375 0.125 Z M 2.625 -4.765625 C 3.101562 -4.765625 3.457031 -4.890625 3.6875 -5.140625 C 3.925781 -5.390625 4.046875 -5.765625 4.046875 -6.265625 C 4.046875 -7.210938 3.570312 -7.6875 2.625 -7.6875 L 1.90625 -7.6875 L 1.90625 -4.765625 Z M 2.734375 -0.65625 C 3.335938 -0.65625 3.765625 -0.78125 4.015625 -1.03125 C 4.273438 -1.28125 4.40625 -1.691406 4.40625 -2.265625 C 4.40625 -2.878906 4.273438 -3.320312 4.015625 -3.59375 C 3.765625 -3.863281 3.335938 -4 2.734375 -4 L 1.90625 -4 L 1.90625 -0.65625 Z M 2.734375 -0.65625" transform="translate(139.88 256.434)"/></g></g></g><g fill="#4793D7"><g><g><path d="M 3.21875 0.125 C 2.632812 0.125 2.148438 -0.00390625 1.765625 -0.265625 C 1.378906 -0.523438 1.085938 -0.96875 0.890625 -1.59375 C 0.691406 -2.226562 0.59375 -3.085938 0.59375 -4.171875 C 0.59375 -5.253906 0.691406 -6.109375 0.890625 -6.734375 C 1.085938 -7.359375 1.367188 -7.800781 1.734375 -8.0625 C 2.097656 -8.332031 2.550781 -8.46875 3.09375 -8.46875 C 3.425781 -8.46875 3.757812 -8.441406 4.09375 -8.390625 C 4.4375 -8.347656 4.703125 -8.289062 4.890625 -8.21875 L 4.890625 -7.6875 L 3.34375 -7.6875 C 2.8125 -7.6875 2.398438 -7.425781 2.109375 -6.90625 C 1.816406 -6.394531 1.671875 -5.484375 1.671875 -4.171875 C 1.671875 -3.273438 1.738281 -2.566406 1.875 -2.046875 C 2.019531 -1.535156 2.222656 -1.175781 2.484375 -0.96875 C 2.753906 -0.757812 3.078125 -0.65625 3.453125 -0.65625 L 5 -0.65625 L 5 -0.125 C 4.8125 -0.0625 4.550781 -0.00390625 4.21875 0.046875 C 3.894531 0.0976562 3.5625 0.125 3.21875 0.125 Z M 3.21875 0.125" transform="translate(146.112 256.434)"/></g></g></g><g fill="#4793D7"><g><g><path d="M 0.828125 0 L 0.828125 -8.34375 L 4.890625 -8.34375 L 4.890625 -7.515625 L 1.90625 -7.515625 L 1.90625 -4.765625 L 4.53125 -4.765625 L 4.53125 -3.9375 L 1.90625 -3.9375 L 1.90625 -0.828125 L 4.890625 -0.828125 L 4.890625 0 Z M 0.828125 0" transform="translate(151.571 256.434)"/></g></g></g><g fill="#4793D7"><g><g><path d="M 2.734375 0.125 C 2.003906 0.125 1.367188 0.0390625 0.828125 -0.125 L 0.828125 -8.21875 C 1.367188 -8.382812 2.003906 -8.46875 2.734375 -8.46875 C 3.566406 -8.46875 4.171875 -8.285156 4.546875 -7.921875 C 4.929688 -7.566406 5.125 -7.015625 5.125 -6.265625 C 5.125 -5.429688 4.804688 -4.84375 4.171875 -4.5 L 4.171875 -4.453125 C 5.046875 -4.191406 5.484375 -3.460938 5.484375 -2.265625 C 5.484375 -1.703125 5.394531 -1.242188 5.21875 -0.890625 C 5.039062 -0.546875 4.75 -0.289062 4.34375 -0.125 C 3.945312 0.0390625 3.410156 0.125 2.734375 0.125 Z M 2.625 -4.765625 C 3.101562 -4.765625 3.457031 -4.890625 3.6875 -5.140625 C 3.925781 -5.390625 4.046875 -5.765625 4.046875 -6.265625 C 4.046875 -7.210938 3.570312 -7.6875 2.625 -7.6875 L 1.90625 -7.6875 L 1.90625 -4.765625 Z M 2.734375 -0.65625 C 3.335938 -0.65625 3.765625 -0.78125 4.015625 -1.03125 C 4.273438 -1.28125 4.40625 -1.691406 4.40625 -2.265625 C 4.40625 -2.878906 4.273438 -3.320312 4.015625 -3.59375 C 3.765625 -3.863281 3.335938 -4 2.734375 -4 L 1.90625 -4 L 1.90625 -0.65625 Z M 2.734375 -0.65625" transform="translate(160.462 256.434)"/></g></g></g><g fill="#4793D7"><g><g><path d="M 2.03125 0 L 2.03125 -7.515625 L 0.125 -7.515625 L 0.125 -8.34375 L 5 -8.34375 L 5 -7.515625 L 3.09375 -7.515625 L 3.09375 0 Z M 2.03125 0" transform="translate(169.95 256.434)"/></g></g></g><g fill="#4793D7"><g><g><path d="M 2.734375 0.125 C 2.003906 0.125 1.367188 0.0390625 0.828125 -0.125 L 0.828125 -8.21875 C 1.367188 -8.382812 2.003906 -8.46875 2.734375 -8.46875 C 3.566406 -8.46875 4.171875 -8.285156 4.546875 -7.921875 C 4.929688 -7.566406 5.125 -7.015625 5.125 -6.265625 C 5.125 -5.429688 4.804688 -4.84375 4.171875 -4.5 L 4.171875 -4.453125 C 5.046875 -4.191406 5.484375 -3.460938 5.484375 -2.265625 C 5.484375 -1.703125 5.394531 -1.242188 5.21875 -0.890625 C 5.039062 -0.546875 4.75 -0.289062 4.34375 -0.125 C 3.945312 0.0390625 3.410156 0.125 2.734375 0.125 Z M 2.625 -4.765625 C 3.101562 -4.765625 3.457031 -4.890625 3.6875 -5.140625 C 3.925781 -5.390625 4.046875 -5.765625 4.046875 -6.265625 C 4.046875 -7.210938 3.570312 -7.6875 2.625 -7.6875 L 1.90625 -7.6875 L 1.90625 -4.765625 Z M 2.734375 -0.65625 C 3.335938 -0.65625 3.765625 -0.78125 4.015625 -1.03125 C 4.273438 -1.28125 4.40625 -1.691406 4.40625 -2.265625 C 4.40625 -2.878906 4.273438 -3.320312 4.015625 -3.59375 C 3.765625 -3.863281 3.335938 -4 2.734375 -4 L 1.90625 -4 L 1.90625 -0.65625 Z M 2.734375 -0.65625" transform="translate(175.348 256.434)"/></g></g></g><g fill="#4793D7"><g><g><path d="M 3.15625 0.125 C 2.59375 0.125 2.125 -0.00390625 1.75 -0.265625 C 1.375 -0.523438 1.085938 -0.96875 0.890625 -1.59375 C 0.691406 -2.226562 0.59375 -3.085938 0.59375 -4.171875 C 0.59375 -5.253906 0.691406 -6.109375 0.890625 -6.734375 C 1.085938 -7.367188 1.375 -7.816406 1.75 -8.078125 C 2.125 -8.335938 2.59375 -8.46875 3.15625 -8.46875 C 3.71875 -8.46875 4.1875 -8.335938 4.5625 -8.078125 C 4.9375 -7.816406 5.222656 -7.367188 5.421875 -6.734375 C 5.617188 -6.109375 5.71875 -5.253906 5.71875 -4.171875 C 5.71875 -3.085938 5.617188 -2.226562 5.421875 -1.59375 C 5.222656 -0.96875 4.9375 -0.523438 4.5625 -0.265625 C 4.1875 -0.00390625 3.71875 0.125 3.15625 0.125 Z M 3.15625 -0.59375 C 4.15625 -0.59375 4.65625 -1.785156 4.65625 -4.171875 C 4.65625 -6.554688 4.15625 -7.75 3.15625 -7.75 C 2.164062 -7.75 1.671875 -6.554688 1.671875 -4.171875 C 1.671875 -1.785156 2.164062 -0.59375 3.15625 -0.59375 Z M 3.15625 -0.59375" transform="translate(181.581 256.434)"/></g></g></g><g fill="#4793D7"><g><g><path d="M 0.828125 0 L 0.828125 -8.34375 L 1.90625 -8.34375 L 1.90625 -2.140625 L 1.96875 -2.140625 L 4.34375 -8.34375 L 5.609375 -8.34375 L 5.609375 0 L 4.53125 0 L 4.53125 -6.203125 L 4.46875 -6.203125 L 2.03125 0 Z M 0.828125 0" transform="translate(188.172 256.434)"/></g></g></g><g fill="#4793D7"><g><g><path d="M 0.171875 0 L 1.96875 -4.296875 L 0.359375 -8.34375 L 1.4375 -8.34375 L 2.734375 -5 L 4.046875 -8.34375 L 5.125 -8.34375 L 3.515625 -4.296875 L 5.3125 0 L 4.234375 0 L 2.734375 -3.578125 L 1.25 0 Z M 0.171875 0" transform="translate(194.882 256.434)"/></g></g></g><g fill="#4793D7"><g><g><path d="M 0.828125 -8.21875 C 1.367188 -8.382812 2.003906 -8.46875 2.734375 -8.46875 C 3.390625 -8.46875 3.90625 -8.375 4.28125 -8.1875 C 4.664062 -8.007812 4.941406 -7.703125 5.109375 -7.265625 C 5.273438 -6.835938 5.359375 -6.242188 5.359375 -5.484375 C 5.359375 -4.710938 5.28125 -4.101562 5.125 -3.65625 C 4.96875 -3.21875 4.722656 -2.90625 4.390625 -2.71875 C 4.066406 -2.53125 3.632812 -2.4375 3.09375 -2.4375 C 2.925781 -2.4375 2.722656 -2.445312 2.484375 -2.46875 C 2.253906 -2.5 2.0625 -2.53125 1.90625 -2.5625 L 1.90625 0 L 0.828125 0 Z M 2.734375 -3.28125 C 3.109375 -3.28125 3.40625 -3.34375 3.625 -3.46875 C 3.851562 -3.601562 4.019531 -3.828125 4.125 -4.140625 C 4.238281 -4.460938 4.296875 -4.910156 4.296875 -5.484375 C 4.296875 -6.054688 4.238281 -6.5 4.125 -6.8125 C 4.019531 -7.132812 3.851562 -7.359375 3.625 -7.484375 C 3.40625 -7.617188 3.109375 -7.6875 2.734375 -7.6875 L 1.90625 -7.6875 L 1.90625 -3.28125 Z M 2.734375 -3.28125" transform="translate(203.893 256.434)"/></g></g></g><g fill="#4793D7"><g><g><path d="M 2.09375 0.125 C 1.78125 0.125 1.382812 0.0390625 0.90625 -0.125 L 0.90625 -0.65625 L 1.734375 -0.65625 C 2.066406 -0.65625 2.332031 -0.773438 2.53125 -1.015625 C 2.726562 -1.265625 2.894531 -1.722656 3.03125 -2.390625 C 2.101562 -2.390625 1.507812 -2.863281 1.25 -3.8125 L 0 -8.34375 L 1.078125 -8.34375 L 2.328125 -3.8125 C 2.390625 -3.601562 2.488281 -3.441406 2.625 -3.328125 C 2.769531 -3.210938 2.957031 -3.15625 3.1875 -3.15625 L 4.234375 -8.34375 L 5.3125 -8.34375 L 4 -1.90625 C 3.863281 -1.1875 3.644531 -0.664062 3.34375 -0.34375 C 3.039062 -0.03125 2.625 0.125 2.09375 0.125 Z M 2.09375 0.125" transform="translate(210.007 256.434)"/></g></g></g><g fill="#4793D7"><g><g><path d="M 5.125 0.125 C 4.769531 0.125 4.472656 0.00390625 4.234375 -0.234375 C 4.003906 -0.472656 3.84375 -0.832031 3.75 -1.3125 L 3.453125 -2.859375 C 3.378906 -3.253906 3.242188 -3.53125 3.046875 -3.6875 C 2.859375 -3.851562 2.617188 -3.9375 2.328125 -3.9375 L 1.90625 -3.9375 L 1.90625 0 L 0.828125 0 L 0.828125 -8.34375 L 1.90625 -8.34375 L 1.90625 -4.765625 L 2.328125 -4.765625 C 2.828125 -4.765625 3.164062 -5.125 3.34375 -5.84375 L 3.640625 -7.03125 C 3.753906 -7.507812 3.925781 -7.867188 4.15625 -8.109375 C 4.382812 -8.347656 4.664062 -8.46875 5 -8.46875 C 5.175781 -8.46875 5.335938 -8.445312 5.484375 -8.40625 C 5.640625 -8.375 5.71875 -8.351562 5.71875 -8.34375 L 5.71875 -7.8125 C 5.4375 -7.8125 5.222656 -7.742188 5.078125 -7.609375 C 4.929688 -7.484375 4.828125 -7.289062 4.765625 -7.03125 L 4.46875 -5.84375 C 4.351562 -5.351562 4.210938 -5.003906 4.046875 -4.796875 C 3.890625 -4.597656 3.671875 -4.457031 3.390625 -4.375 L 3.390625 -4.328125 C 3.722656 -4.242188 3.984375 -4.09375 4.171875 -3.875 C 4.359375 -3.664062 4.5 -3.328125 4.59375 -2.859375 L 4.890625 -1.3125 C 4.929688 -1.082031 5.03125 -0.894531 5.1875 -0.75 C 5.34375 -0.601562 5.5625 -0.53125 5.84375 -0.53125 L 5.84375 0 C 5.84375 0.0078125 5.765625 0.03125 5.609375 0.0625 C 5.460938 0.101562 5.300781 0.125 5.125 0.125 Z M 5.125 0.125" transform="translate(215.823 256.434)"/></g></g></g><g fill="#4793D7"><g><g><path d="M 0.234375 0 L 2.265625 -8.34375 L 3.8125 -8.34375 L 5.84375 0 L 4.765625 0 L 4.234375 -2.140625 L 1.84375 -2.140625 L 1.3125 0 Z M 2.03125 -2.984375 L 4.046875 -2.984375 L 3.0625 -7.15625 L 3.015625 -7.15625 Z M 2.03125 -2.984375" transform="translate(221.996 256.434)"/></g></g></g><g fill="#4793D7"><g><g><path d="M 0.171875 0 L 1.96875 -4.296875 L 0.359375 -8.34375 L 1.4375 -8.34375 L 2.734375 -5 L 4.046875 -8.34375 L 5.125 -8.34375 L 3.515625 -4.296875 L 5.3125 0 L 4.234375 0 L 2.734375 -3.578125 L 1.25 0 Z M 0.171875 0" transform="translate(228.349 256.434)"/></g></g></g><g clip-path="url(#a)"><path fill="#FF1616" d="M 193.914062 197.246094 C 169.296875 197.246094 149.289062 177.234375 149.289062 152.621094 C 149.289062 128.003906 169.296875 107.996094 193.914062 107.996094 C 218.527344 107.996094 238.539062 128.003906 238.539062 152.621094 C 238.539062 177.234375 218.527344 197.246094 193.914062 197.246094 Z M 193.914062 110.671875 C 170.777344 110.671875 151.964844 129.488281 151.964844 152.621094 C 151.964844 175.753906 170.796875 194.566406 193.914062 194.566406 C 217.046875 194.566406 235.859375 175.734375 235.859375 152.621094 C 235.859375 129.488281 217.046875 110.671875 193.914062 110.671875 Z M 193.914062 110.671875"/></g><path fill="#FF1616" d="M 193.914062 184.75 C 176.1875 184.75 161.78125 170.34375 161.78125 152.621094 C 161.78125 134.894531 176.1875 120.507812 193.914062 120.507812 C 211.636719 120.507812 226.023438 134.914062 226.023438 152.621094 C 226.042969 170.328125 211.636719 184.75 193.914062 184.75 Z M 193.914062 122.898438 C 177.527344 122.898438 164.210938 136.234375 164.210938 152.601562 C 164.210938 168.96875 177.527344 182.324219 193.914062 182.324219 C 210.296875 182.324219 223.613281 168.988281 223.613281 152.621094 C 223.613281 136.25 210.296875 122.898438 193.914062 122.898438 Z M 193.914062 122.898438"/><g clip-path="url(#b)"><path fill="#004AAD" d="M 179.226562 201.289062 C 154.402344 201.289062 134.226562 181.113281 134.226562 156.289062 C 134.226562 131.46875 154.402344 111.289062 179.226562 111.289062 C 204.046875 111.289062 224.226562 131.46875 224.226562 156.289062 C 224.226562 181.113281 204.046875 201.289062 179.226562 201.289062 Z M 179.226562 113.988281 C 155.898438 113.988281 136.925781 132.960938 136.925781 156.289062 C 136.925781 179.617188 155.914062 198.589844 179.226562 198.589844 C 202.554688 198.589844 221.527344 179.601562 221.527344 156.289062 C 221.527344 132.960938 202.554688 113.988281 179.226562 113.988281 Z M 179.226562 113.988281"/></g><path fill="#004AAD" d="M 179.226562 188.691406 C 161.351562 188.691406 146.824219 174.164062 146.824219 156.289062 C 146.824219 138.414062 161.351562 123.90625 179.226562 123.90625 C 197.101562 123.90625 211.609375 138.433594 211.609375 156.289062 C 211.625 174.144531 197.101562 188.691406 179.226562 188.691406 Z M 179.226562 126.320312 C 162.703125 126.320312 149.273438 139.765625 149.273438 156.273438 C 149.273438 172.777344 162.703125 186.242188 179.226562 186.242188 C 195.75 186.242188 209.175781 172.796875 209.175781 156.289062 C 209.175781 139.785156 195.75 126.320312 179.226562 126.320312 Z M 179.226562 126.320312"/><g clip-path="url(#c)"><path d="M 179.25 187.957031 C 155.460938 187.957031 136.125 168.621094 136.125 144.832031 C 136.125 121.042969 155.460938 101.707031 179.25 101.707031 C 203.039062 101.707031 222.375 121.042969 222.375 144.832031 C 222.375 168.621094 203.039062 187.957031 179.25 187.957031 Z M 179.25 104.292969 C 156.894531 104.292969 138.710938 122.476562 138.710938 144.832031 C 138.710938 167.1875 156.910156 185.367188 179.25 185.367188 C 201.605469 185.367188 219.785156 167.171875 219.785156 144.832031 C 219.785156 122.476562 201.605469 104.292969 179.25 104.292969 Z M 179.25 104.292969"/></g><path d="M 179.25 175.882812 C 162.121094 175.882812 148.199219 161.960938 148.199219 144.832031 C 148.199219 127.703125 162.121094 113.800781 179.25 113.800781 C 196.378906 113.800781 210.28125 127.71875 210.28125 144.832031 C 210.300781 161.945312 196.378906 175.882812 179.25 175.882812 Z M 179.25 116.109375 C 163.414062 116.109375 150.546875 128.996094 150.546875 144.8125 C 150.546875 160.632812 163.414062 173.535156 179.25 173.535156 C 195.085938 173.535156 207.953125 160.648438 207.953125 144.832031 C 207.953125 129.011719 195.085938 116.109375 179.25 116.109375 Z M 179.25 116.109375"/></svg>