<svg width="24" height="24" viewBox="0 0 24 24" fill="none" xmlns="http://www.w3.org/2000/svg">
<path fill-rule="evenodd" clip-rule="evenodd" d="M7.19187 3.19187C8.46712 1.91662 10.1967 1.2002 12.0002 1.2002C13.8037 1.2002 15.5333 1.91662 16.8085 3.19187C18.0838 4.46712 18.8002 6.19672 18.8002 8.0002V13.758L20.6658 16.5564C20.8295 16.8019 20.8448 17.1176 20.7055 17.3777C20.5663 17.6378 20.2952 17.8002 20.0002 17.8002H4.0002C3.70516 17.8002 3.43407 17.6378 3.29486 17.3777C3.15564 17.1176 3.1709 16.8019 3.33456 16.5564L5.2002 13.758V8.0002C5.2002 6.19672 5.91662 4.46712 7.19187 3.19187ZM12.0002 2.8002C10.6211 2.8002 9.29843 3.34805 8.32324 4.32324C7.34805 5.29843 6.8002 6.62107 6.8002 8.0002V14.0002C6.8002 14.1581 6.75345 14.3125 6.66584 14.444L5.49501 16.2002H18.5054L17.3346 14.444C17.2469 14.3125 17.2002 14.1581 17.2002 14.0002V8.0002C17.2002 6.62107 16.6523 5.29843 15.6772 4.32324C14.702 3.34805 13.3793 2.8002 12.0002 2.8002Z" fill="#1B3452"/>
<path fill-rule="evenodd" clip-rule="evenodd" d="M9.86831 20.3082C10.2505 20.0865 10.74 20.2166 10.9617 20.5988C11.0672 20.7806 11.2186 20.9316 11.4008 21.0365C11.583 21.1414 11.7895 21.1967 11.9997 21.1967C12.21 21.1967 12.4165 21.1414 12.5987 21.0365C12.7808 20.9316 12.9322 20.7806 13.0377 20.5988C13.2594 20.2166 13.749 20.0865 14.1311 20.3082C14.5133 20.5299 14.6434 21.0194 14.4217 21.4016C14.1756 21.8259 13.8223 22.1781 13.3972 22.423C12.9722 22.6678 12.4903 22.7966 11.9997 22.7966C11.5092 22.7966 11.0273 22.6678 10.6022 22.423C10.1771 22.1781 9.82386 21.8259 9.57773 21.4016C9.35603 21.0194 9.48613 20.5299 9.86831 20.3082Z" fill="#1B3452"/>
</svg>
