<svg width="24" height="24" viewBox="0 0 24 24" fill="none" xmlns="http://www.w3.org/2000/svg">
<path fill-rule="evenodd" clip-rule="evenodd" d="M10.6015 1.57632C11.0268 1.33119 11.509 1.20215 11.9998 1.20215C12.4907 1.20215 12.9728 1.33117 13.3981 1.57626L13.3998 1.57728L20.3998 5.57727C20.8251 5.82278 21.1783 6.1758 21.424 6.6009C21.6697 7.02601 21.7993 7.50826 21.7998 7.99928V16.0001C21.7993 16.4911 21.6697 16.9742 21.424 17.3993C21.1783 17.8244 20.8251 18.1774 20.3998 18.4229L20.3968 18.4247L13.3998 22.4229L13.3978 22.4241C12.9726 22.6691 12.4905 22.798 11.9998 22.798C11.5091 22.798 11.027 22.6691 10.6018 22.4241L10.5998 22.4229L3.60293 18.4247L3.59984 18.4229C3.17461 18.1774 2.82141 17.8244 2.57569 17.3993C2.32996 16.9742 2.20034 16.4919 2.19984 16.0009L2.19984 8.0001C2.20034 7.50908 2.32996 7.02601 2.57569 6.6009C2.82141 6.1758 3.17461 5.82278 3.59984 5.57728L3.60293 5.5755L10.6015 1.57632ZM11.9998 2.80215C11.7892 2.80215 11.5823 2.8576 11.3998 2.96292L11.3968 2.9647L4.39984 6.96292L4.39851 6.96369C4.21686 7.06887 4.06597 7.21987 3.96092 7.40162C3.85566 7.5837 3.80012 7.79025 3.79984 8.00056V15.9996C3.80012 16.2099 3.85566 16.4165 3.96092 16.5986C4.06597 16.7803 4.21686 16.9313 4.39851 17.0365L4.39984 17.0373L11.3998 21.0373C11.5823 21.1426 11.7892 21.198 11.9998 21.198C12.2105 21.198 12.4174 21.1426 12.5998 21.0373L12.6029 21.0355L19.5998 17.0373L19.6012 17.0365C19.7828 16.9313 19.9337 16.7803 20.0388 16.5986C20.1441 16.4164 20.1996 16.2097 20.1998 15.9993V8.00092C20.1996 7.79048 20.1441 7.5838 20.0388 7.40162C19.9337 7.21988 19.7828 7.06889 19.6012 6.96371L19.5998 6.96292L12.5998 2.96292C12.4174 2.8576 12.2105 2.80215 11.9998 2.80215Z" fill="#1B3452"/>
<path fill-rule="evenodd" clip-rule="evenodd" d="M6.80715 3.80988C7.02819 3.42731 7.5175 3.29637 7.90006 3.51741L11.9998 5.88617L16.0996 3.51741C16.4822 3.29637 16.9715 3.42731 17.1925 3.80988C17.4136 4.19244 17.2826 4.68175 16.9001 4.90279L12.4001 7.50279C12.1524 7.64587 11.8473 7.64587 11.5996 7.50279L7.09962 4.90279C6.71706 4.68175 6.58611 4.19244 6.80715 3.80988Z" fill="#1B3452"/>
<path fill-rule="evenodd" clip-rule="evenodd" d="M2.30715 11.5999C2.52818 11.2173 3.0175 11.0864 3.40006 11.3074L7.90006 13.9074C8.14746 14.0503 8.29984 14.3144 8.29984 14.6001V19.7901C8.29984 20.2319 7.94167 20.5901 7.49984 20.5901C7.05801 20.5901 6.69984 20.2319 6.69984 19.7901V15.0618L2.59962 12.6928C2.21706 12.4718 2.08611 11.9824 2.30715 11.5999Z" fill="#1B3452"/>
<path fill-rule="evenodd" clip-rule="evenodd" d="M21.6925 11.5999C21.9136 11.9824 21.7826 12.4718 21.4001 12.6928L17.2998 15.0618V19.7901C17.2998 20.2319 16.9417 20.5901 16.4998 20.5901C16.058 20.5901 15.6998 20.2319 15.6998 19.7901V14.6001C15.6998 14.3144 15.8522 14.0503 16.0996 13.9074L20.5996 11.3074C20.9822 11.0864 21.4715 11.2173 21.6925 11.5999Z" fill="#1B3452"/>
<path fill-rule="evenodd" clip-rule="evenodd" d="M2.57735 6.55952C2.79859 6.17707 3.28797 6.04638 3.67042 6.26761L11.9998 11.0859L20.3293 6.26761C20.7117 6.04638 21.2011 6.17707 21.4223 6.55952C21.6436 6.94197 21.5129 7.43135 21.1304 7.65258L12.4004 12.7026C12.1526 12.8459 11.8471 12.8459 11.5993 12.7026L2.86926 7.65258C2.48681 7.43135 2.35612 6.94197 2.57735 6.55952Z" fill="#1B3452"/>
<path fill-rule="evenodd" clip-rule="evenodd" d="M11.9998 11.2001C12.4417 11.2001 12.7998 11.5583 12.7998 12.0001V22.0801C12.7998 22.5219 12.4417 22.8801 11.9998 22.8801C11.558 22.8801 11.1998 22.5219 11.1998 22.0801V12.0001C11.1998 11.5583 11.558 11.2001 11.9998 11.2001Z" fill="#1B3452"/>
</svg>
