<svg width="24" height="24" viewBox="0 0 24 24" fill="none" xmlns="http://www.w3.org/2000/svg">
<path fill-rule="evenodd" clip-rule="evenodd" d="M2.2002 3.0002C2.2002 2.55837 2.55837 2.2002 3.0002 2.2002H10.0002C10.442 2.2002 10.8002 2.55837 10.8002 3.0002V10.0002C10.8002 10.442 10.442 10.8002 10.0002 10.8002H3.0002C2.55837 10.8002 2.2002 10.442 2.2002 10.0002V3.0002ZM3.8002 3.8002V9.2002H9.2002V3.8002H3.8002Z" fill="#1B3452"/>
<path fill-rule="evenodd" clip-rule="evenodd" d="M13.2002 3.0002C13.2002 2.55837 13.5584 2.2002 14.0002 2.2002H21.0002C21.442 2.2002 21.8002 2.55837 21.8002 3.0002V10.0002C21.8002 10.442 21.442 10.8002 21.0002 10.8002H14.0002C13.5584 10.8002 13.2002 10.442 13.2002 10.0002V3.0002ZM14.8002 3.8002V9.2002H20.2002V3.8002H14.8002Z" fill="#1B3452"/>
<path fill-rule="evenodd" clip-rule="evenodd" d="M13.2002 14.0002C13.2002 13.5584 13.5584 13.2002 14.0002 13.2002H21.0002C21.442 13.2002 21.8002 13.5584 21.8002 14.0002V21.0002C21.8002 21.442 21.442 21.8002 21.0002 21.8002H14.0002C13.5584 21.8002 13.2002 21.442 13.2002 21.0002V14.0002ZM14.8002 14.8002V20.2002H20.2002V14.8002H14.8002Z" fill="#1B3452"/>
<path fill-rule="evenodd" clip-rule="evenodd" d="M2.2002 14.0002C2.2002 13.5584 2.55837 13.2002 3.0002 13.2002H10.0002C10.442 13.2002 10.8002 13.5584 10.8002 14.0002V21.0002C10.8002 21.442 10.442 21.8002 10.0002 21.8002H3.0002C2.55837 21.8002 2.2002 21.442 2.2002 21.0002V14.0002ZM3.8002 14.8002V20.2002H9.2002V14.8002H3.8002Z" fill="#1B3452"/>
</svg>
