<svg width="24" height="24" viewBox="0 0 24 24" fill="none" xmlns="http://www.w3.org/2000/svg">
<g opacity="0.9">
<path fill-rule="evenodd" clip-rule="evenodd" d="M12.0002 2.8002C6.91918 2.8002 2.8002 6.91918 2.8002 12.0002C2.8002 17.0812 6.91918 21.2002 12.0002 21.2002C17.0812 21.2002 21.2002 17.0812 21.2002 12.0002C21.2002 6.91918 17.0812 2.8002 12.0002 2.8002ZM1.2002 12.0002C1.2002 6.03552 6.03552 1.2002 12.0002 1.2002C17.9649 1.2002 22.8002 6.03552 22.8002 12.0002C22.8002 17.9649 17.9649 22.8002 12.0002 22.8002C6.03552 22.8002 1.2002 17.9649 1.2002 12.0002Z" fill="#1B3452"/>
<path d="M12.3997 7.63179C11.8882 7.54405 11.3621 7.64018 10.9147 7.90315C10.4672 8.16612 10.1273 8.57897 9.95504 9.06857C9.80842 9.48534 9.3517 9.70436 8.93492 9.55774C8.51814 9.41113 8.29913 8.95441 8.44574 8.53763C8.74336 7.6916 9.33079 6.9782 10.104 6.52378C10.8772 6.06936 11.7863 5.90325 12.6702 6.05487C13.5542 6.20649 14.3559 6.66605 14.9335 7.35217C15.5109 8.03812 15.827 8.90625 15.8259 9.80287C15.8256 11.2265 14.7684 12.1844 13.9708 12.7162C13.5476 12.9983 13.1301 13.2065 12.8215 13.3437L12.2812 13.5589C11.862 13.6986 11.409 13.4721 11.2693 13.053C11.1297 12.6343 11.3556 12.1818 11.7738 12.0415L11.7765 12.0406L11.7939 12.0345C11.8105 12.0286 11.8371 12.019 11.8722 12.0056C11.9425 11.9788 12.0461 11.9374 12.1717 11.8816C12.4252 11.769 12.7571 11.6024 13.0833 11.385C13.7844 10.9176 14.2259 10.3769 14.2259 9.80232L14.2259 9.80113C14.2267 9.28213 14.0437 8.77959 13.7095 8.38254C13.3753 7.98548 12.9113 7.71953 12.3997 7.63179Z" fill="#1B3452"/>
<path fill-rule="evenodd" clip-rule="evenodd" d="M11.2002 17.0002C11.2002 16.5584 11.5584 16.2002 12.0002 16.2002H12.0102C12.452 16.2002 12.8102 16.5584 12.8102 17.0002C12.8102 17.442 12.452 17.8002 12.0102 17.8002H12.0002C11.5584 17.8002 11.2002 17.442 11.2002 17.0002Z" fill="#1B3452"/>
</g>
</svg>
