<svg width="24" height="24" viewBox="0 0 24 24" fill="none" xmlns="http://www.w3.org/2000/svg">
<path fill-rule="evenodd" clip-rule="evenodd" d="M1.2002 2.0002C1.2002 1.55837 1.55837 1.2002 2.0002 1.2002H12.0002C12.2124 1.2002 12.4159 1.28448 12.5659 1.43451L21.1576 10.0262C21.6791 10.5508 21.9718 11.2605 21.9718 12.0002C21.9718 12.7399 21.6791 13.4496 21.1576 13.9742L20.5902 13.4102L21.1559 13.9759L13.9862 21.1456C13.7262 21.4059 13.4173 21.6124 13.0774 21.7533C12.7375 21.8942 12.3732 21.9668 12.0052 21.9668C11.6372 21.9668 11.2729 21.8942 10.933 21.7533C10.5933 21.6125 10.2847 21.4062 10.0248 21.1462M10.0248 21.1462L1.43484 12.5662C1.28461 12.4162 1.2002 12.2125 1.2002 12.0002V2.0002M20.0235 12.8455C20.0233 12.8457 20.0238 12.8453 20.0235 12.8455C20.2466 12.6207 20.3718 12.3169 20.3718 12.0002C20.3718 11.6835 20.2466 11.3797 20.0235 11.1549C20.0238 11.1551 20.0233 11.1547 20.0235 11.1549L11.6688 2.8002H2.8002V11.6686L11.1556 20.0142C11.267 20.1258 11.4 20.2149 11.5457 20.2753C11.6913 20.3357 11.8475 20.3668 12.0052 20.3668C12.1629 20.3668 12.319 20.3357 12.4647 20.2753C12.6104 20.2149 12.7427 20.1264 12.8542 20.0148L20.0235 12.8455Z" fill="#1B3452"/>
<path fill-rule="evenodd" clip-rule="evenodd" d="M6.2002 7.0002C6.2002 6.55837 6.55837 6.2002 7.0002 6.2002H7.0102C7.45202 6.2002 7.8102 6.55837 7.8102 7.0002C7.8102 7.44202 7.45202 7.8002 7.0102 7.8002H7.0002C6.55837 7.8002 6.2002 7.44202 6.2002 7.0002Z" fill="#1B3452"/>
</svg>
