<svg width="24" height="24" viewBox="0 0 24 24" fill="none" xmlns="http://www.w3.org/2000/svg">
<g opacity="0.9">
<path fill-rule="evenodd" clip-rule="evenodd" d="M11.4345 11.4345C11.7469 11.1221 12.2534 11.1221 12.5658 11.4345L16.5658 15.4345C16.8783 15.7469 16.8783 16.2534 16.5658 16.5659C16.2534 16.8783 15.7469 16.8783 15.4345 16.5659L12.0002 13.1315L8.56584 16.5659C8.25342 16.8783 7.74689 16.8783 7.43447 16.5659C7.12205 16.2534 7.12205 15.7469 7.43447 15.4345L11.4345 11.4345Z" fill="#1B3452"/>
<path fill-rule="evenodd" clip-rule="evenodd" d="M12.0002 11.2002C12.442 11.2002 12.8002 11.5584 12.8002 12.0002V21.0002C12.8002 21.442 12.442 21.8002 12.0002 21.8002C11.5583 21.8002 11.2002 21.442 11.2002 21.0002V12.0002C11.2002 11.5584 11.5583 11.2002 12.0002 11.2002Z" fill="#1B3452"/>
<path fill-rule="evenodd" clip-rule="evenodd" d="M8.67082 2.2086C10.0001 2.15963 11.3232 2.41263 12.5406 2.9486C13.758 3.48457 14.8381 4.28955 15.6996 5.30303C16.4258 6.15729 16.9808 7.14095 17.3367 8.20018H18.0002C19.2888 8.20103 20.5409 8.63098 21.558 9.42218C22.5751 10.2134 23.2998 11.3208 23.6176 12.5695C23.9355 13.8183 23.8284 15.1374 23.3133 16.3186C22.7982 17.4998 21.9045 18.4758 20.7731 19.0926C20.3852 19.3041 19.8992 19.161 19.6878 18.7731C19.4763 18.3852 19.6193 17.8993 20.0072 17.6878C20.8265 17.2411 21.4737 16.5344 21.8467 15.679C22.2197 14.8237 22.2972 13.8685 22.0671 12.9642C21.8369 12.0599 21.3122 11.258 20.5756 10.6851C19.8392 10.1122 18.9331 9.80091 18.0002 9.80018C18.0003 9.80018 18 9.80018 18.0002 9.80018M18.0002 9.80018H16.7402C16.3755 9.80018 16.0569 9.55352 15.9656 9.20043C15.6932 8.14674 15.1855 7.16853 14.4806 6.33932C13.7757 5.51011 12.892 4.85149 11.8959 4.41297C10.8998 3.97445 9.81732 3.76745 8.72973 3.80752C7.64214 3.84759 6.57778 4.1337 5.61668 4.64432C4.65558 5.15495 3.82274 5.87682 3.18078 6.75565C2.53882 7.63448 2.10444 8.64741 1.9103 9.71828C1.71617 10.7892 1.76732 11.8901 2.05991 12.9384C2.35251 13.9866 2.87894 14.9549 3.59962 15.7704C3.8922 16.1015 3.86099 16.6071 3.52991 16.8996C3.19883 17.1922 2.69326 17.161 2.40069 16.8299C1.51985 15.8332 0.876442 14.6497 0.518823 13.3685C0.161204 12.0873 0.0986854 10.7417 0.335967 9.43287C0.573248 8.12402 1.10415 6.886 1.88877 5.81187C2.67339 4.73775 3.6913 3.85547 4.86598 3.23137C6.04066 2.60726 7.34154 2.25758 8.67082 2.2086" fill="#1B3452"/>
<path fill-rule="evenodd" clip-rule="evenodd" d="M11.4345 11.4345C11.7469 11.1221 12.2534 11.1221 12.5658 11.4345L16.5658 15.4345C16.8783 15.7469 16.8783 16.2534 16.5658 16.5659C16.2534 16.8783 15.7469 16.8783 15.4345 16.5659L12.0002 13.1315L8.56584 16.5659C8.25342 16.8783 7.74689 16.8783 7.43447 16.5659C7.12205 16.2534 7.12205 15.7469 7.43447 15.4345L11.4345 11.4345Z" fill="#1B3452"/>
</g>
</svg>
