<svg width="24" height="24" viewBox="0 0 24 24" fill="none" xmlns="http://www.w3.org/2000/svg">
<path fill-rule="evenodd" clip-rule="evenodd" d="M4.60608 15.6061C5.50626 14.7059 6.72716 14.2002 8.0002 14.2002H16.0002C17.2732 14.2002 18.4941 14.7059 19.3943 15.6061C20.2945 16.5063 20.8002 17.7272 20.8002 19.0002V21.0002C20.8002 21.442 20.442 21.8002 20.0002 21.8002C19.5584 21.8002 19.2002 21.442 19.2002 21.0002V19.0002C19.2002 18.1515 18.8631 17.3376 18.2629 16.7375C17.6628 16.1373 16.8489 15.8002 16.0002 15.8002H8.0002C7.1515 15.8002 6.33757 16.1373 5.73745 16.7375C5.13734 17.3376 4.8002 18.1515 4.8002 19.0002V21.0002C4.8002 21.442 4.44202 21.8002 4.0002 21.8002C3.55837 21.8002 3.2002 21.442 3.2002 21.0002V19.0002C3.2002 17.7272 3.70591 16.5063 4.60608 15.6061Z" fill="#1B3452"/>
<path fill-rule="evenodd" clip-rule="evenodd" d="M12.0002 3.8002C10.2329 3.8002 8.8002 5.23288 8.8002 7.0002C8.8002 8.76751 10.2329 10.2002 12.0002 10.2002C13.7675 10.2002 15.2002 8.76751 15.2002 7.0002C15.2002 5.23288 13.7675 3.8002 12.0002 3.8002ZM7.2002 7.0002C7.2002 4.34923 9.34923 2.2002 12.0002 2.2002C14.6512 2.2002 16.8002 4.34923 16.8002 7.0002C16.8002 9.65116 14.6512 11.8002 12.0002 11.8002C9.34923 11.8002 7.2002 9.65116 7.2002 7.0002Z" fill="#1B3452"/>
</svg>
